<svg width="164" height="44" viewBox="0 0 164 44" fill="none" xmlns="http://www.w3.org/2000/svg">
<rect y="3.85864" width="36.2828" height="36.2828" rx="6.37939" fill="#82E297"/>
<path d="M8.17348 32.0941H16.6207C16.7663 32.0941 16.8628 31.9432 16.8017 31.8111L8.35442 13.547C8.26472 13.3531 7.97412 13.417 7.97412 13.6307V31.8948C7.97412 32.0049 8.06338 32.0941 8.17348 32.0941Z" fill="#1B5B4A"/>
<path d="M27.8389 32.0941H18.696C18.6179 32.0941 18.5471 32.0486 18.5146 31.9776L10.3061 14.0033C10.2129 13.7994 10.4766 13.6222 10.6323 13.7835L27.9801 31.754C28.1022 31.8806 28.0148 32.0941 27.8389 32.0941Z" fill="#1B5B4A"/>
<path d="M26.7754 13.2468L22.8742 23.9381C22.8232 24.0779 22.6425 24.1145 22.541 24.0056L19.4073 20.6398C19.3352 20.5624 19.3362 20.4422 19.4094 20.3659L26.4443 13.0404C26.5937 12.8849 26.8493 13.0443 26.7754 13.2468Z" fill="#1B5B4A"/>
<path d="M28.3084 14.6532V29.3275C28.3084 29.5066 28.0906 29.5949 27.9659 29.4663L24.0585 25.4341C24.0052 25.3792 23.9882 25.2985 24.0145 25.2267L27.9219 14.5845C27.9987 14.3754 28.3084 14.4305 28.3084 14.6532Z" fill="#1B5B4A"/>
<path d="M53.8617 35H49.8125V11.1296H53.8617L61.5681 30.1345L69.2746 11.1296H73.389V35H69.3399V27.6527C69.3399 22.8525 69.3399 21.4484 69.5685 19.7503L63.4947 35H59.6415L53.6004 19.783C53.829 21.2198 53.8617 23.473 53.8617 26.4445V35ZM82.8846 35.4245C79.4559 35.4245 77.366 33.4326 77.366 30.3957C77.366 27.4242 79.5212 25.5628 83.3418 25.269L88.1746 24.9098V24.5506C88.1746 22.3627 86.8685 21.481 84.8439 21.481C82.4928 21.481 81.1866 22.4607 81.1866 24.1587H77.7905C77.7905 20.6647 80.6641 18.3789 85.0398 18.3789C89.3829 18.3789 92.0605 20.73 92.0605 25.2036V35H88.5665L88.2726 32.6162C87.5869 34.2816 85.399 35.4245 82.8846 35.4245ZM84.1908 32.4203C86.6399 32.4203 88.2073 30.9508 88.2073 28.4691V27.6201L84.8439 27.8813C82.3621 28.1099 81.4152 28.9263 81.4152 30.2324C81.4152 31.7019 82.3948 32.4203 84.1908 32.4203ZM106.097 18.8034V22.4933H104.628C101.754 22.4933 99.9581 24.0281 99.9581 27.1629V35H95.9742V18.9013H99.7295L99.9581 21.2525C100.644 19.6524 102.179 18.5748 104.334 18.5748C104.889 18.5748 105.444 18.6401 106.097 18.8034ZM112.81 35H108.859V10.7051H112.81V25.6282L119.08 18.8687H124.076L117.937 25.269L123.945 35H119.374L115.161 28.2079L112.81 30.657V35ZM132.848 35.4245C128.048 35.4245 124.684 31.9305 124.684 26.9343C124.684 21.8729 127.982 18.3789 132.717 18.3789C137.55 18.3789 140.62 21.6117 140.62 26.6404V27.8487L128.472 27.8813C128.766 30.7223 130.268 32.1591 132.913 32.1591C135.101 32.1591 136.538 31.31 136.995 29.7753H140.685C139.999 33.302 137.06 35.4245 132.848 35.4245ZM132.75 21.6443C130.399 21.6443 128.962 22.9178 128.57 25.3343H136.668C136.668 23.1138 135.134 21.6443 132.75 21.6443ZM149.134 35H145.151V22.1994H142.048V18.8687H145.151V13.8399H149.134V18.8687H152.269V22.1994H149.134V35ZM156.738 15.6359C155.366 15.6359 154.289 14.5583 154.289 13.2194C154.289 11.8806 155.366 10.8357 156.738 10.8357C158.044 10.8357 159.122 11.8806 159.122 13.2194C159.122 14.5583 158.044 15.6359 156.738 15.6359ZM154.746 35V18.8687H158.73V35H154.746Z" fill="white"/>
</svg>
